<?xml version="1.0" encoding="UTF-8"?>
<svg width="671px" height="127px" viewBox="0 0 671 127" version="1.1" xmlns="http://www.w3.org/2000/svg" xmlns:xlink="http://www.w3.org/1999/xlink">
    <!-- Generator: Sketch 59.1 (86144) - https://sketch.com -->
    <title>logo-new copy 2</title>
    <desc>Created with Sketch.</desc>
    <g id="pdf" stroke="none" stroke-width="1" fill="none" fill-rule="evenodd">
        <g id="A3" transform="translate(-260.000000, -161.000000)" fill-rule="nonzero">
            <g id="Group" transform="translate(151.000000, 34.500000)">
                <g id="logo-new-copy-2" transform="translate(109.000000, 126.500000)">
                    <g id="Group-10-Copy-10" transform="translate(0.000000, 1.000000)">
                        <polygon id="Fill-5" fill="#ABE1FA" points="0 126 44.9852294 5 90 126"></polygon>
                        <path d="M159,125.970902 C159,125.970902 148.513048,126.487498 145.092261,117.175993 C141.345818,106.973218 125.294647,63.0667961 125.294647,63.0667961 C125.294647,63.0667961 109.229439,19.0156136 105.411408,8.81283804 C101.822178,-0.786768837 91.5177053,0.0165099156 91.5177053,0.0165099156 L49,0.0165099156 C49,0.0165099156 59.6862755,-0.112639143 62.8937023,8.81283804 C66.5966312,19.0581902 82.7755374,63.0667961 82.7755374,63.0667961 C82.7755374,63.0667961 98.7986346,106.98741 102.588592,117.175993 C106.235373,126.97571 116.48089,125.970902 116.48089,125.970902 L159,125.970902 Z" id="Fill-7" fill="#14B1E7"></path>
                        <path d="M217,125.970902 C217,125.970902 206.513048,126.487498 203.106298,117.175993 C199.331781,106.973218 183.294647,63.0667961 183.294647,63.0667961 C183.294647,63.0667961 167.229439,19.0156136 163.425445,8.81283804 C159.822179,-0.786768837 149.503669,0.0165099156 149.503669,0.0165099156 L107,0.0165099156 C107,0.0165099156 117.686276,-0.112639143 120.906336,8.81283804 C124.596631,19.0581902 140.775538,63.0667961 140.775538,63.0667961 C140.775538,63.0667961 156.770561,106.98741 160.588592,117.175993 C164.235373,126.97571 174.480891,125.970902 174.480891,125.970902 L217,125.970902 Z" id="Fill-9" fill="#2B75A2"></path>
                    </g>
                    <path d="M309.808008,77.9427358 L301.095294,77.9427358 L301.095294,47.0774127 C301.095294,42.1583353 300.801416,38.5556847 300.213651,36.2693531 C299.625885,33.9830214 298.34665,32.0604532 296.375908,30.5015907 C294.405165,28.9427282 291.812121,28.1633086 288.596699,28.1633086 C285.381277,28.1633086 282.356059,29.2025347 279.520955,31.281018 C276.685852,33.3595014 274.715139,36.1827323 273.608757,39.7507955 C272.502375,43.3188583 271.949192,48.601591 271.949192,55.5991516 L271.949192,77.9427358 L263.547647,77.9427358 L263.547647,48.9480383 C263.547647,43.2668502 263.253769,39.1792277 262.666003,36.6850477 C262.078238,34.1908677 260.781716,32.1470564 258.776399,30.5535525 C256.771082,28.9600486 254.247186,28.1633086 251.204636,28.1633086 C248.162086,28.1633086 245.275164,29.1159325 242.543784,31.0212089 C239.812404,32.9264853 237.78983,35.4206279 236.476001,38.5037118 C235.162173,41.5867951 234.505268,46.6963236 234.505268,53.8324496 L234.505268,77.9427358 L226,77.9427358 L226,21.3043479 L234.505268,21.3043479 L234.505268,29.3064687 C239.345689,23.0017359 245.396124,19.8494168 252.656755,19.8494168 C256.59824,19.8494168 260.176641,20.9059633 263.392063,23.019088 C266.607485,25.1322128 268.906651,28.128648 270.289628,32.0084836 C272.640689,28.0593652 275.579472,25.0456096 279.106064,22.9671262 C282.632657,20.8886428 286.366639,19.8494168 290.308125,19.8494168 C295.701736,19.8494168 300.300067,21.7546646 304.103255,25.5652174 C307.906442,29.3757702 309.808008,36.5464302 309.808008,47.0774127 L309.808008,77.9427358 Z M379.61344,77.9427358 L371.211894,77.9427358 L371.211894,69.628844 C365.057645,76.4185564 357.969993,79.8133618 349.948724,79.8133618 C341.927456,79.8133618 335.064533,76.8515674 329.359752,70.9278898 C323.654971,65.0042122 320.802623,57.9374749 320.802623,49.7274656 C320.802623,41.5174563 323.672258,34.4853598 329.411613,28.630965 C335.150969,22.7765702 342.152187,19.8494168 350.415477,19.8494168 C358.678766,19.8494168 365.610836,23.2095811 371.211894,29.9300106 L371.211894,21.3043479 L379.61344,21.3043479 L379.61344,77.9427358 Z M350.571061,71.8112408 C356.310417,71.8112408 361.254487,69.7327887 365.403419,65.575822 C369.552351,61.4188553 371.626785,56.2400452 371.626785,50.0392363 C371.626785,43.8384278 369.586925,38.6422974 365.507142,34.4506893 C361.427358,30.2590812 356.431428,28.1633086 350.5192,28.1633086 C344.606971,28.1633086 339.611041,30.328363 335.531258,34.6585366 C331.451474,38.9887103 329.411613,44.0982384 329.411613,49.9872746 C329.411613,55.8763109 331.486048,60.985839 335.63498,65.3160129 C339.783912,69.6461864 344.762556,71.8112408 350.571061,71.8112408 Z M442.365722,21.3043479 L408.863264,98 L399.943105,98 L410.833998,73.0583245 L387.911262,21.3043479 L396.83142,21.3043479 L415.397798,62.7698833 L433.341841,21.3043479 L442.365722,21.3043479 Z M475.764458,28.7868505 L464.562398,28.7868505 L464.562398,68.4856839 C464.562398,69.9406222 464.769843,70.8239646 465.184736,71.1357372 C465.599626,71.4475095 466.636847,71.6033933 468.296418,71.6033933 L473.275111,71.6033933 L473.275111,78.9819725 C469.955966,79.5362347 467.432069,79.8133618 465.703349,79.8133618 C462.384203,79.8133618 459.929456,78.9993011 458.339031,77.371156 C456.748606,75.7430105 455.953407,73.1622658 455.953407,69.628844 L455.953407,28.7868505 L446.203465,28.7868505 L446.203465,21.3043479 L455.953407,21.3043479 L455.953407,0 L464.562398,0 L464.562398,21.3043479 L475.764458,21.3043479 L475.764458,28.7868505 Z M540.591199,51.1304347 L491.011706,51.1304347 C491.357453,57.3658849 493.449174,62.3714905 497.286936,66.1474018 C501.124697,69.9233135 505.705742,71.8112408 511.030206,71.8112408 C520.088704,71.8112408 527.003488,67.3425684 531.774759,58.4050902 L539.035354,62.1463415 C535.785359,68.1739431 531.947654,72.6252948 527.522127,75.5005304 C523.0966,78.3757656 517.806791,79.8133618 511.65254,79.8133618 C503.147231,79.8133618 496.128724,76.886208 490.596816,71.0318135 C485.064907,65.1774186 482.298992,58.1280016 482.298992,49.8833509 C482.298992,41.6387003 485.082194,34.571963 490.648679,28.6829268 C496.21516,22.7938907 503.112658,19.8494168 511.341373,19.8494168 C519.570088,19.8494168 526.450296,22.6380067 531.982208,28.2152704 C537.514116,33.7925341 540.38375,41.4308458 540.591199,51.1304347 Z M531.048702,43.5440085 C530.01147,38.6942142 527.660441,34.9183592 523.995552,32.2163309 C520.330662,29.5143025 516.112644,28.1633086 511.341373,28.1633086 C501.660532,28.1633086 495.229784,33.2901573 492.048934,43.5440085 L531.048702,43.5440085 Z M607.596115,66.4072109 C604.622714,70.7720261 600.733146,74.0975496 595.927302,76.3838813 C591.121455,78.670213 585.918082,79.8133618 580.317024,79.8133618 C571.604266,79.8133618 564.326455,76.9381693 558.483375,71.1876989 C552.640299,65.4372281 549.718802,58.4051317 549.718802,50.0911984 C549.718802,41.777265 552.657586,34.6585662 558.535238,28.7348887 C564.412891,22.8112111 572.019152,19.8494168 581.354249,19.8494168 C586.886161,19.8494168 591.985811,21.0618472 596.653359,23.4867444 C601.320908,25.9116417 604.968458,29.3064469 607.596115,33.6712619 L600.854133,37.9321316 C595.806267,31.3502676 589.202647,28.0593849 581.043081,28.0593849 C574.612236,28.0593849 569.218705,30.1205167 564.862328,34.242842 C560.50595,38.3651673 558.327793,43.4746954 558.327793,49.5715802 C558.327793,55.6684646 560.471374,60.899236 564.758605,65.2640508 C569.045837,69.6288661 574.473941,71.8112408 581.043081,71.8112408 C588.926052,71.8112408 595.564246,68.4857173 600.957855,61.8345707 L607.596115,66.4072109 Z M669,77.9427358 L660.391009,77.9427358 L660.391009,50.9225877 C660.391009,45.6570963 660.235427,41.9505234 659.924256,39.8027572 C659.613089,37.6549909 658.904321,35.6285002 657.79794,33.7232238 C656.691558,31.8179474 655.187592,30.3630309 653.285999,29.3584306 C651.384407,28.3538303 649.102528,27.8515376 646.440294,27.8515376 C643.778064,27.8515376 641.23688,28.4750733 638.816672,29.7221633 C636.39646,30.9692533 634.322025,32.7012968 632.593305,34.9183457 C630.864581,37.1353945 629.671782,39.4909737 629.014867,41.9851539 C628.357955,44.4793338 628.029502,49.467619 628.029502,56.950159 L628.029502,77.9427358 L619.420511,77.9427358 L619.420511,0 L628.029502,0 L628.029502,29.826087 C633.63056,23.1749402 640.268753,19.8494168 647.944275,19.8494168 C652.024058,19.8494168 655.723468,20.9059633 659.042613,23.019088 C662.361758,25.1322128 664.851083,28.0420458 666.510653,31.7486745 C668.170228,35.4553031 669,41.1537261 669,48.8441146 L669,77.9427358 Z" id="maytech" fill="#484C5D"></path>
                    <path d="M248.601604,116.381258 C248.546215,119.73258 247.590769,122.34017 245.735237,124.204108 C243.879706,126.068045 241.43801,127 238.410078,127 C234.939033,127 232.169625,125.912719 230.101769,123.738126 C228.033913,121.563532 227,119.017131 227,116.098845 C227,113.180559 228.033913,110.652984 230.101769,108.516046 C232.169625,106.379108 234.837489,105.310655 238.10544,105.310655 C239.877888,105.310655 241.525686,105.64484 243.048884,106.313222 C244.572081,106.981604 246.062946,108.002988 247.521523,109.377407 L245.693695,111.156611 C244.567453,110.04578 243.348913,109.193841 242.038039,108.60077 C240.727166,108.007699 239.379387,107.711168 237.994662,107.711168 C236.609937,107.711168 235.234464,108.087715 233.868202,108.840822 C232.50194,109.593927 231.431102,110.610605 230.655656,111.890886 C229.88021,113.171166 229.492493,114.554978 229.492493,116.042362 C229.492493,118.358163 230.346394,120.377398 232.054221,122.100128 C233.762049,123.822858 235.899109,124.684211 238.465466,124.684211 C240.367156,124.684211 242.010338,124.152337 243.395063,123.088575 C244.779789,122.024813 245.629074,120.570398 245.942945,118.725289 L239.62863,118.725289 L239.62863,116.381258 L248.601604,116.381258 Z M268.132285,126.491656 L258.07923,126.491656 L258.07923,105.818998 L260.48864,105.818998 L260.48864,124.147625 L268.132285,124.147625 L268.132285,126.491656 Z M286.721357,105.310655 C288.696898,105.310655 290.515477,105.786045 292.177147,106.736842 C293.838817,107.687639 295.145055,109.000847 296.095899,110.676508 C297.046744,112.352169 297.522159,114.173717 297.522159,116.141206 C297.522159,118.108696 297.05136,119.930244 296.109746,121.605905 C295.168134,123.281566 293.875743,124.599482 292.232536,125.559692 C290.589329,126.519902 288.80306,127 286.873676,127 C284.944293,127 283.148793,126.524609 281.487122,125.573813 C279.825452,124.623016 278.52383,123.314514 277.582217,121.648267 C276.640604,119.98202 276.169804,118.165179 276.169804,116.197689 C276.169804,114.2302 276.640604,112.403945 277.582217,110.71887 C278.52383,109.033795 279.811605,107.711173 281.445581,106.750963 C283.079556,105.790752 284.838131,105.310655 286.721357,105.310655 Z M286.80444,124.627728 C289.112315,124.627728 291.064748,123.827564 292.661798,122.227214 C294.258848,120.626864 295.057361,118.621749 295.057361,116.21181 C295.057361,113.801871 294.249616,111.777928 292.634104,110.139923 C291.018591,108.501917 289.075389,107.682927 286.80444,107.682927 C284.478102,107.682927 282.5349,108.506624 280.974777,110.154043 C279.414653,111.801463 278.634603,113.806578 278.634603,116.169448 C278.634603,118.532318 279.437731,120.532726 281.044012,122.170732 C282.650294,123.808737 284.570417,124.627728 286.80444,124.627728 Z M315.72351,115.166881 C317.015921,115.656399 317.989829,116.353012 318.645266,117.256739 C319.300702,118.160467 319.628416,119.233626 319.628416,120.476251 C319.628416,122.208395 319.01453,123.643982 317.786741,124.783055 C316.558951,125.922128 314.95731,126.491656 312.981768,126.491656 L307.304424,126.491656 L307.304424,105.818998 L311.430884,105.818998 C313.572592,105.818998 315.201928,106.266149 316.318939,107.160462 C317.435951,108.054775 317.994448,109.33033 317.994448,110.987163 C317.994448,112.794617 317.237477,114.187843 315.72351,115.166881 Z M309.658445,114.291399 L310.600053,114.291399 C312.261723,114.291399 313.503341,114.027816 314.324945,113.500642 C315.146549,112.973467 315.557344,112.13565 315.557344,110.987163 C315.557344,109.123226 314.292648,108.191271 311.763216,108.191271 L309.658445,108.191271 L309.658445,114.291399 Z M309.658445,124.119384 L311.929382,124.119384 C313.351034,124.119384 314.384946,123.978178 315.031151,123.695764 C315.677356,123.413349 316.194313,122.98032 316.582036,122.396662 C316.969759,121.813005 317.163618,121.219943 317.163618,120.617458 C317.163618,120.014973 317.048225,119.4831 316.817438,119.021823 C316.58665,118.560545 316.24509,118.15105 315.792746,117.793325 C315.340403,117.435599 314.786521,117.167309 314.131084,116.988447 C313.475648,116.809584 312.289418,116.720154 310.572359,116.720154 L309.658445,116.720154 L309.658445,124.119384 Z M347.190462,126.491656 L344.670275,126.491656 L341.540812,119.572529 L333.177114,119.572529 L330.075345,126.491656 L327.444381,126.491656 L337.026631,105 L337.746684,105 L347.190462,126.491656 Z M340.460732,117.115533 L337.386657,110.139923 L334.284889,117.115533 L340.460732,117.115533 Z M366.001089,126.491656 L355.948036,126.491656 L355.948036,105.818998 L358.357445,105.818998 L358.357445,124.147625 L366.001089,124.147625 L366.001089,126.491656 Z M389.843299,105.818998 L394.163618,105.818998 C397.080773,105.818998 399.203988,106.04022 400.533322,106.48267 C401.862661,106.92512 403.011965,107.612319 403.981272,108.544287 C404.950579,109.476256 405.693703,110.610605 406.210668,111.947368 C406.727633,113.284132 406.986112,114.827976 406.986112,116.578947 C406.986112,118.329919 406.603009,119.98202 405.836793,121.535302 C405.070578,123.088583 403.981279,124.302948 402.568859,125.178434 C401.156439,126.05392 399.09323,126.491656 396.379171,126.491656 L389.843299,126.491656 L389.843299,105.818998 Z M392.141933,124.175866 L394.246704,124.175866 C396.591503,124.175866 398.299308,124.053489 399.37016,123.808729 C400.441015,123.563969 401.373383,123.093285 402.16729,122.396662 C402.9612,121.700039 403.565854,120.848101 403.981272,119.840821 C404.396689,118.833542 404.604396,117.670952 404.604396,116.353017 C404.604396,115.035081 404.359765,113.816009 403.870495,112.695763 C403.381224,111.575519 402.684259,110.662391 401.779571,109.956354 C400.874883,109.250317 399.813276,108.779633 398.594719,108.544287 C397.376162,108.308942 395.631433,108.191271 393.360482,108.191271 L392.141933,108.191271 L392.141933,124.175866 Z M434.492769,126.491656 L431.97258,126.491656 L428.843118,119.572529 L420.47942,119.572529 L417.37765,126.491656 L414.746688,126.491656 L424.328936,105 L425.04899,105 L434.492769,126.491656 Z M427.763037,117.115533 L424.688963,110.139923 L421.587196,117.115533 L427.763037,117.115533 Z M452.583341,108.191271 L448.152244,108.191271 L448.152244,126.491656 L445.742833,126.491656 L445.742833,108.191271 L441.28404,108.191271 L441.28404,105.818998 L452.583341,105.818998 L452.583341,108.191271 Z M479.093002,126.491656 L476.572817,126.491656 L473.443352,119.572529 L465.079654,119.572529 L461.977887,126.491656 L459.346921,126.491656 L468.929173,105 L469.649223,105 L479.093002,126.491656 Z M472.363271,117.115533 L469.2892,110.139923 L466.18743,117.115533 L472.363271,117.115533 Z M512.129743,108.191271 L507.698642,108.191271 L507.698642,126.491656 L505.289234,126.491656 L505.289234,108.191271 L500.830442,108.191271 L500.830442,105.818998 L512.129743,105.818998 L512.129743,108.191271 Z M534.208303,126.491656 L531.217314,126.491656 L524.072165,117.05905 L523.241334,117.05905 L523.241334,126.491656 L520.859622,126.491656 L520.859622,105.818998 L525.013774,105.818998 C527.229334,105.818998 528.752508,105.917842 529.583343,106.115533 C530.414182,106.313223 531.134225,106.647409 531.743505,107.1181 C532.352785,107.588791 532.832815,108.195974 533.183613,108.939666 C533.53441,109.683358 533.709804,110.507056 533.709804,111.410783 C533.709804,113.124099 533.137459,114.49379 531.992755,115.519897 C530.84805,116.546004 529.195636,117.05905 527.035463,117.05905 L534.208303,126.491656 Z M523.241334,114.686778 L526.481577,114.686778 C528.106322,114.705606 529.306398,114.456143 530.081843,113.938382 C530.857291,113.420622 531.245006,112.592218 531.245006,111.453145 C531.245006,110.314072 530.86652,109.485668 530.109538,108.967907 C529.352556,108.450147 528.170942,108.191271 526.564659,108.191271 L523.241334,108.191271 L523.241334,114.686778 Z M561.604186,126.491656 L559.083997,126.491656 L555.954536,119.572529 L547.590837,119.572529 L544.489067,126.491656 L541.858101,126.491656 L551.440353,105 L552.160407,105 L561.604186,126.491656 Z M554.874455,117.115533 L551.80038,110.139923 L548.69861,117.115533 L554.874455,117.115533 Z M586.396794,126.491656 L585.67674,126.491656 L572.826555,111.495507 L572.826555,126.491656 L570.389452,126.491656 L570.389452,105.818998 L571.109506,105.818998 L584.042773,121.012837 L584.042773,105.818998 L586.396794,105.818998 L586.396794,126.491656 Z M604.819702,110.365854 C604.081182,109.34916 603.453447,108.666668 602.936485,108.318357 C602.41952,107.970045 601.814865,107.795892 601.122503,107.795892 C600.43014,107.795892 599.848563,108.02182 599.377758,108.473684 C598.906951,108.925548 598.671552,109.504489 598.671552,110.210526 C598.671552,110.916563 598.893103,111.533159 599.336216,112.060333 C599.779328,112.587508 600.799393,113.44886 602.396443,114.644416 C603.993493,115.839972 605.161259,116.964907 605.899779,118.019255 C606.638299,119.073604 607.007555,120.184419 607.007555,121.351733 C607.007555,122.876772 606.430596,124.199395 605.276658,125.319641 C604.122721,126.439886 602.779558,127 601.247128,127 C598.551531,127 596.437549,125.465569 594.905119,122.396662 L596.926808,121.210526 C598.126903,123.488672 599.474681,124.627728 600.970183,124.627728 C601.930261,124.627728 602.751851,124.317076 603.434981,123.695764 C604.118114,123.074451 604.459675,122.349598 604.459675,121.521181 C604.459675,120.692764 604.173501,119.906722 603.601149,119.16303 C603.028796,118.419337 602.041038,117.50621 600.637851,116.42362 C599.234664,115.34103 598.269986,114.517333 597.743791,113.952503 C597.217593,113.387673 596.834493,112.785198 596.594473,112.145058 C596.354456,111.504918 596.234449,110.864787 596.234449,110.224647 C596.234449,108.850228 596.700631,107.687639 597.633014,106.736842 C598.565393,105.786045 599.770088,105.310655 601.247128,105.310655 C602.391832,105.310655 603.38882,105.607185 604.23812,106.200257 C605.087418,106.793328 605.918241,107.673507 606.73061,108.840822 L604.819702,110.365854 Z M627.31368,116.550706 L619.3377,116.550706 L619.3377,126.491656 L616.955988,126.491656 L616.955988,105.818998 L627.31368,105.818998 L627.31368,108.219512 L619.3377,108.219512 L619.3377,114.150192 L627.31368,114.150192 L627.31368,116.550706 Z M648.36755,108.219512 L638.951466,108.219512 L638.951466,114.150192 L648.284468,114.150192 L648.284468,116.522465 L638.951466,116.522465 L638.951466,124.091142 L648.284468,124.091142 L648.284468,126.491656 L636.56975,126.491656 L636.56975,105.818998 L648.36755,105.818998 L648.36755,108.219512 Z M671,126.491656 L668.009007,126.491656 L660.863862,117.05905 L660.033031,117.05905 L660.033031,126.491656 L657.651315,126.491656 L657.651315,105.818998 L661.805471,105.818998 C664.02103,105.818998 665.544205,105.917842 666.37504,106.115533 C667.205875,106.313223 667.925921,106.647409 668.535202,107.1181 C669.144478,107.588791 669.624512,108.195974 669.975306,108.939666 C670.326104,109.683358 670.501501,110.507056 670.501501,111.410783 C670.501501,113.124099 669.929156,114.49379 668.784448,115.519897 C667.639743,116.546004 665.987329,117.05905 663.82716,117.05905 L671,126.491656 Z M660.033031,114.686778 L663.27327,114.686778 C664.898015,114.705606 666.098091,114.456143 666.87354,113.938382 C667.648984,113.420622 668.036702,112.592218 668.036702,111.453145 C668.036702,110.314072 667.658217,109.485668 666.901231,108.967907 C666.144249,108.450147 664.962635,108.191271 663.356356,108.191271 L660.033031,108.191271 L660.033031,114.686778 Z" id="GLOBALDATATRANSFER" fill="#484C5D"></path>
                </g>
            </g>
        </g>
    </g>
</svg>