<svg width="24" height="24" viewBox="0 0 24 24" xmlns="http://www.w3.org/2000/svg">
<path fill-rule="evenodd" clip-rule="evenodd" d="M10.2676 5H13.7324C13.3866 4.4022 12.7403 4 12 4C11.2597 4 10.6134 4.4022 10.2676 5ZM8.12602 5C8.57006 3.27477 10.1362 2 12 2C13.8638 2 15.4299 3.27477 15.874 5H17.9862H20H21C21.5523 5 22 5.44772 22 6C22 6.55228 21.5523 7 21 7H19.7647L18.4156 18.4674C18.1786 20.4818 16.4713 22 14.443 22H9.557C7.52865 22 5.82139 20.4818 5.5844 18.4674L4.23529 7H3C2.44772 7 2 6.55228 2 6C2 5.44772 2.44772 5 3 5H4H6.01379H8.12602ZM7.5707 18.2337C7.68919 19.2409 8.54283 20 9.557 20H14.443C15.4572 20 16.3108 19.2409 16.4293 18.2337L17.7509 7H6.24909L7.5707 18.2337ZM9 11C9 10.4477 9.44771 10 10 10C10.5523 10 11 10.4477 11 11V15C11 15.5523 10.5523 16 10 16C9.44771 16 9 15.5523 9 15V11ZM14 10C14.5523 10 15 10.4477 15 11V15C15 15.5523 14.5523 16 14 16C13.4477 16 13 15.5523 13 15V11C13 10.4477 13.4477 10 14 10Z" />
</svg>
